# xmcd
#
# Track frame offsets:
#	150
#	16954
#	27840
#	45460
#	64594
#	74689
#	89284
#	107658
#	126408
#	151230
#	166109
#	181358
#	205396
#	218909
#	231220
#
# Disc length: 3344 seconds
#
# Revision: 0
# Processed by: cddbd v1.5PL3 Copyright (c) Steve Scherf et al.
# Submitted via: dBpowerAMP V4.0
#
DISCID=cb0d0e0f
DTITLE=Paul Staggs and Robert WM Welch - Christian Country Duo
DYEAR=2004
DGENRE=Christian Country
TTITLE0=Billy's Got Dreams 
TTITLE1=Just My Luck
TTITLE2=Tell Of His Faithfulness
TTITLE3=Just Three Nails
TTITLE4=New Walk
TTITLE5=Strong Tower
TTITLE6=Witness
TTITLE7=Quiet Place (Live )
TTITLE8=Here Faor You
TTITLE9=Let The Record Show
TTITLE10=Hope For You (Live)
TTITLE11=Not So Far
TTITLE12=Two Step
TTITLE13=Washed In The Blood
TTITLE14=Batted-Freid (Live)
EXTD=www.brandedministries.com
EXTT0=
EXTT1=
EXTT2=
EXTT3=
EXTT4=
EXTT5=
EXTT6=
EXTT7=
EXTT8=
EXTT9=
EXTT10=
EXTT11=
EXTT12=
EXTT13=
EXTT14=
PLAYORDER=
